<?xml version="1.0" standalone="no"?><!DOCTYPE svg PUBLIC "-//W3C//DTD SVG 1.1//EN" "http://www.w3.org/Graphics/SVG/1.1/DTD/svg11.dtd"><svg t="1586830855786" class="icon" viewBox="0 0 1024 1024" version="1.1" xmlns="http://www.w3.org/2000/svg" p-id="4123" xmlns:xlink="http://www.w3.org/1999/xlink" width="200" height="200"><defs><style type="text/css"></style></defs><path d="M106.469376 843.29472" p-id="4124"></path><path d="M255.172608 469.248c5.536768-66.035712 33.354752-121.788416 82.65728-167.634944 49.531904-46.060544 107.597824-67.879936 174.558208-67.879936 59.572224 0 112.211968 18.471936 157.934592 55.877632L532.702208 426.759168l363.889664 0L896.591872 63.330304 761.7536 197.712896l-0.923648 0c-72.502272-61.423616-155.620352-92.11904-249.365504-91.892736-102.980608 0.23552-189.78304 34.648064-265.070592 105.284608-74.330112 69.74976-114.525184 156.087296-120.061952 258.143232L255.172608 469.248z" p-id="4125"></path><path d="M261.632 827.137024c73.42592 60.489728 157.006848 90.930176 250.755072 90.930176 101.129216 0 189.134848-35.270656 263.681024-104.818688 75.994112-70.838272 114.525184-154.672128 120.072192-257.65376l-128.83968 0c-5.086208 65.57696-32.330752 120.991744-81.738752 166.714368-49.417216 45.717504-107.136 68.773888-173.17376 68.773888-58.647552 0-111.75424-18.422784-159.318016-55.847936L490.683392 598.086656 126.331904 598.086656l0 363.42784L261.632 827.137024z" p-id="4126"></path><path d="M916.916224 843.29472" p-id="4127"></path></svg>