<?xml version="1.0" standalone="no"?><!DOCTYPE svg PUBLIC "-//W3C//DTD SVG 1.1//EN" "http://www.w3.org/Graphics/SVG/1.1/DTD/svg11.dtd"><svg t="1586831218174" class="icon" viewBox="0 0 1024 1024" version="1.1" xmlns="http://www.w3.org/2000/svg" p-id="6591" xmlns:xlink="http://www.w3.org/1999/xlink" width="200" height="200"><defs><style type="text/css"></style></defs><path d="M1023.996 959.998c0 23.56-19.124 42.654-42.688 42.654H42.658c-23.562 0-42.656-19.094-42.656-42.654V746.656C0.002 723.094 19.096 704 42.658 704h938.65c23.562 0 42.688 19.094 42.688 42.656v213.342z" fill="#656D78" p-id="6592"></path><path d="M640 853.342c0 11.782-9.562 21.312-21.344 21.312s-21.344-9.532-21.344-21.312 9.562-21.344 21.344-21.344S640 841.56 640 853.342zM512 853.342c0 11.782-9.562 21.312-21.344 21.312s-21.344-9.532-21.344-21.312 9.562-21.344 21.344-21.344S512 841.56 512 853.342zM767.996 853.342c0 11.782-9.562 21.312-21.344 21.312s-21.344-9.532-21.344-21.312 9.562-21.344 21.344-21.344 21.344 9.562 21.344 21.344zM895.996 853.342c0 11.782-9.562 21.312-21.344 21.312s-21.344-9.532-21.344-21.312 9.562-21.344 21.344-21.344 21.344 9.562 21.344 21.344z" fill="#CCD1D9" p-id="6593"></path><path d="M192 895.998c-23.53 0-42.686-19.156-42.686-42.656 0-23.532 19.156-42.688 42.686-42.688 23.5 0 42.656 19.156 42.656 42.688 0.002 23.5-19.156 42.656-42.656 42.656z" fill="#48CFAD" p-id="6594"></path><path d="M192 789.344c-35.374 0-64 28.654-64 63.998s28.624 64 64 64c35.344 0 64-28.656 64-64s-28.656-63.998-64-63.998z m0 85.31c-11.75 0-21.342-9.562-21.342-21.312 0-11.782 9.592-21.344 21.342-21.344s21.312 9.562 21.312 21.344c0.002 11.75-9.562 21.312-21.312 21.312z" fill="#37BC9B" p-id="6595"></path><path d="M490.656 277.346h42.656V704h-42.656z" fill="#434A54" p-id="6596"></path><path d="M512 341.346c-23.532 0-42.688-19.156-42.688-42.688s19.156-42.656 42.688-42.656c23.5 0 42.656 19.124 42.656 42.656S535.5 341.346 512 341.346z" fill="#5D9CEC" p-id="6597"></path><path d="M512 234.658c-35.376 0-64 28.656-64 64s28.624 64 64 64c35.344 0 64-28.656 64-64s-28.656-64-64-64z m0 85.344c-11.75 0-21.344-9.562-21.344-21.344 0-11.75 9.594-21.312 21.344-21.312s21.312 9.562 21.312 21.312c0 11.782-9.562 21.344-21.312 21.344z" fill="#4A89DC" p-id="6598"></path><path d="M656.938 187.22a21.3 21.3 0 0 0-21.312 21.312c0 4.532 1.376 8.718 3.812 12.156 14.25 23.218 21.876 50.032 21.876 77.968 0 27.968-7.624 54.75-21.876 78-2.438 3.438-3.812 7.624-3.812 12.124 0 11.78 9.532 21.342 21.312 21.342 7.594 0 14.25-3.968 18.032-9.938 18.406-29.436 29.028-64.248 29.028-101.53s-10.622-72.062-29.028-101.532a21.294 21.294 0 0 0-18.032-9.902zM774.902 116.22l-0.032 0.032a21.226 21.226 0 0 0-18.062-10.032 21.3 21.3 0 0 0-21.312 21.312c0 4.5 1.376 8.656 3.75 12.094a276.912 276.912 0 0 1 28.312 51.094c14.438 34.188 21.75 70.5 21.75 107.938 0 37.468-7.312 73.782-21.75 107.936a274.854 274.854 0 0 1-28.312 51.094 21.232 21.232 0 0 0-3.75 12.094c0 11.782 9.532 21.344 21.312 21.344 7.624 0 14.312-4 18.062-10.032h0.032c35.968-51.75 57.094-114.624 57.094-182.436s-21.124-130.688-57.094-182.438z" fill="#5D9CEC" p-id="6599"></path><path d="M870.902 30.504l-0.032 0.032c-3.876-5.562-10.282-9.188-17.562-9.188-11.75 0-21.312 9.532-21.312 21.312 0 4.968 1.688 9.53 4.5 13.124 0.094 0.124 0.188 0.218 0.282 0.312a402.556 402.556 0 0 1 48.718 84.812c21.124 49.938 31.812 103.032 31.812 157.75 0 54.75-10.688 107.81-31.812 157.78a401.592 401.592 0 0 1-48.718 84.782c-0.094 0.124-0.188 0.218-0.282 0.312a21.368 21.368 0 0 0-4.5 13.124c0 11.782 9.562 21.344 21.312 21.344 7.282 0 13.688-3.656 17.562-9.188l0.032 0.032c55.968-74.782 89.094-167.594 89.094-268.186 0-100.562-33.124-193.374-89.094-268.154z" fill="#5D9CEC" p-id="6600"></path><path d="M367.062 187.22c11.75 0 21.312 9.532 21.312 21.312 0 4.532-1.406 8.718-3.812 12.156-14.282 23.218-21.906 50.032-21.906 77.968 0 27.968 7.624 54.75 21.906 78a21.084 21.084 0 0 1 3.812 12.124c0 11.78-9.562 21.342-21.312 21.342-7.624 0-14.25-3.968-18.062-9.938-18.374-29.436-29-64.248-29-101.53s10.624-72.062 29-101.532c3.812-5.964 10.438-9.902 18.062-9.902zM249.064 116.22l0.032 0.032c3.782-6.032 10.468-10.032 18.094-10.032 11.75 0 21.312 9.532 21.312 21.312 0 4.5-1.376 8.656-3.75 12.094A276.912 276.912 0 0 0 256.44 190.72c-14.438 34.188-21.782 70.5-21.782 107.938 0 37.468 7.344 73.782 21.782 107.936a274.854 274.854 0 0 0 28.312 51.094 21.232 21.232 0 0 1 3.75 12.094c0 11.782-9.562 21.344-21.312 21.344-7.624 0-14.312-4-18.094-10.032h-0.032C213.094 429.344 192 366.47 192 298.658s21.094-130.688 57.064-182.438z" fill="#5D9CEC" p-id="6601"></path><path d="M153.064 30.504l0.062 0.032a21.24 21.24 0 0 1 17.532-9.188C182.438 21.348 192 30.878 192 42.66c0 4.968-1.688 9.53-4.532 13.124-0.094 0.124-0.156 0.218-0.282 0.312A403.828 403.828 0 0 0 138.5 140.908c-21.124 49.938-31.844 103.032-31.844 157.75 0 54.75 10.718 107.81 31.844 157.78a402.858 402.858 0 0 0 48.686 84.782c0.124 0.124 0.188 0.218 0.282 0.312A21.198 21.198 0 0 1 192 554.656C192 566.438 182.438 576 170.658 576a21.318 21.318 0 0 1-17.532-9.188l-0.062 0.032c-55.938-74.782-89.062-167.594-89.062-268.186 0-100.562 33.124-193.374 89.062-268.154z" fill="#5D9CEC" p-id="6602"></path></svg>