<?xml version="1.0" standalone="no"?><!DOCTYPE svg PUBLIC "-//W3C//DTD SVG 1.1//EN" "http://www.w3.org/Graphics/SVG/1.1/DTD/svg11.dtd"><svg t="1586761876264" class="icon" viewBox="0 0 1024 1024" version="1.1" xmlns="http://www.w3.org/2000/svg" p-id="5276" xmlns:xlink="http://www.w3.org/1999/xlink" width="200" height="200"><defs><style type="text/css"></style></defs><path d="M771.152207 0H311.409834a138.816509 138.816509 0 0 0-138.410109 138.407287v747.182604a138.816509 138.816509 0 0 0 138.410109 138.410109h459.742373a138.816509 138.816509 0 0 0 138.41011-138.410109V138.407287A138.816509 138.816509 0 0 0 771.152207 0z m-229.869775 972.059873a67.451045 67.451045 0 1 1 67.448223-67.451045 67.451045 67.451045 0 0 1-67.451045 67.451045z m279.916193-311.279518a125.933077 125.933077 0 0 1-125.560544 125.560544H386.921138a125.933077 125.933077 0 0 1-125.560544-125.560544V228.328844a125.933077 125.933077 0 0 1 125.560544-125.563367h308.711299a125.933077 125.933077 0 0 1 125.563366 125.560544z" fill="#231815" p-id="5277"></path></svg>