<?xml version="1.0" standalone="no"?><!DOCTYPE svg PUBLIC "-//W3C//DTD SVG 1.1//EN" "http://www.w3.org/Graphics/SVG/1.1/DTD/svg11.dtd"><svg t="1586761307699" class="icon" viewBox="0 0 1024 1024" version="1.1" xmlns="http://www.w3.org/2000/svg" p-id="2705" xmlns:xlink="http://www.w3.org/1999/xlink" width="200" height="200"><defs><style type="text/css"></style></defs><path d="M705.6 601.7H672c-8.7 0-15.7-7.1-15.7-15.7v-33.6c0-8.7-7.1-15.7-15.7-15.7H632c-8.7 0-15.7 7.1-15.7 15.7V586c0 8.7-7.1 15.7-15.7 15.7H567c-8.7 0-15.7 7.1-15.7 15.7v8.5c0 8.7 7.1 15.7 15.7 15.7h33.6c8.7 0 15.7 7.1 15.7 15.7V691c0 8.7 7.1 15.7 15.7 15.7h8.5c8.7 0 15.7-7.1 15.7-15.7v-33.6c0-8.7 7.1-15.7 15.7-15.7h33.6c8.7 0 15.7-7.1 15.7-15.7v-8.5c0.2-8.8-6.9-15.8-15.6-15.8z" p-id="2706"></path><path d="M512 0C229.2 0 0 229.2 0 512s229.2 512 512 512 512-229.2 512-512S794.8 0 512 0zM247.7 761.7c0-115.8 64.6-214.2 154.4-250.2-28.2-25.5-46.3-65.1-46.3-109.7 0-77 54.1-139.5 120.9-139.5 47.7 0 88.9 31.8 108.6 78.2 1.2 2.8 2.3 5.6 3.4 8.5 0.1 0.2 0.1 0.2 0.1 0.4 1.1 2.9 2 5.8 2.8 8.8 0.1 0.1 0.1 0.3 0.1 0.4 0.4 1.4 0.8 2.7 1.1 4.1 0.1 0.1 0.1 0.4 0.1 0.5 0.4 1.5 0.7 3 1.1 4.5l0.1 0.1c0.4 1.5 0.6 2.8 0.9 4.2 0.1 0.3 0.1 0.6 0.2 0.9 0.3 1.5 0.5 2.9 0.8 4.4s0.5 3 0.6 4.5c0.1 0.3 0.1 0.6 0.1 1 0.2 1.2 0.3 2.4 0.4 3.6 0.1 0.4 0.1 0.6 0.1 0.9 0.1 1.5 0.2 3 0.4 4.5 0 0.3 0.1 0.6 0.1 0.9 0.1 1.2 0.1 2.4 0.2 3.6 0.1 0.4 0.1 0.8 0.1 1.2 0.1 1.5 0.1 3.1 0.1 4.5 0 1.2-0.1 2.5-0.1 3.7-0.1 0.4-0.1 0.8-0.1 1.2-0.1 0.9-0.1 1.8-0.1 2.6 0 0.4-0.1 0.8-0.1 1.2-0.1 0.9-0.1 1.9-0.2 2.8 0 0.3-0.1 0.6-0.1 0.9-0.1 1.1-0.2 2.4-0.3 3.6-0.1 0.4-0.1 0.7-0.1 1.1-0.1 0.8-0.2 1.7-0.3 2.6-0.1 0.5-0.1 0.9-0.2 1.4-0.1 0.8-0.2 1.6-0.4 2.5-0.1 0.4-0.1 0.8-0.2 1.2-0.2 1.2-0.4 2.3-0.6 3.5-0.1 0.4-0.1 0.6-0.2 0.9-0.1 0.9-0.3 1.7-0.5 2.6-0.1 0.5-0.2 0.9-0.3 1.4-0.2 0.7-0.3 1.4-0.5 2.1-0.1 0.5-0.2 1-0.4 1.5-0.2 0.8-0.4 1.4-0.5 2.2-0.1 0.6-0.3 1.1-0.4 1.6-0.2 0.9-0.5 1.8-0.8 2.8-0.2 0.6-0.3 1.1-0.5 1.6s-0.4 1.2-0.5 1.7c-0.2 0.5-0.4 1.2-0.5 1.7-0.2 0.6-0.4 1.1-0.5 1.6-0.2 0.5-0.4 1.2-0.6 1.7-0.2 0.6-0.4 1.1-0.5 1.6-0.4 1.1-0.8 2.1-1.2 3.2 0 0.2-0.1 0.3-0.2 0.5-70 21-121.2 86.1-121.2 162.8 0 58 29.2 109.3 73.7 140h-292z m528.6-140c0 77.3-62.7 140-140 140s-140-62.7-140-140 62.7-140 140-140 140 62.7 140 140z" p-id="2707"></path></svg>